<svg height='300px' width='300px'  fill="#000000" xmlns="http://www.w3.org/2000/svg" xmlns:xlink="http://www.w3.org/1999/xlink" version="1.1" x="0px" y="0px" viewBox="0 0 512 512" style="enable-background:new 0 0 512 512;" xml:space="preserve"><g><path d="M433.5,44h-355C49.8,44,26,67.6,26,96.3V338c0,28.7,23.8,52,52.5,52h171.1l120.9,75.9   c1.9,1.2,4.2,1.8,6.4,1.8c2,0,4-0.5,5.9-1.5c3.8-2.1,6.2-6.1,6.2-10.5V390h44.5c28.7,0,52.5-23.3,52.5-52V96.3   C486,67.6,462.2,44,433.5,44z M462,338c0,15.4-13,28-28.5,28h-56.6c-6.6,0-11.9,5.4-11.9,12v56l-105.5-66.2   c-1.9-1.2-4.2-1.8-6.4-1.8H78.5C63,366,50,353.4,50,338V96.3C50,80.8,63,68,78.5,68h355C449,68,462,80.8,462,96.3V338z"></path></g></svg>