<svg version="1.1" xmlns="http://www.w3.org/2000/svg" xmlns:xlink="http://www.w3.org/1999/xlink" x="0px" y="0px"
	viewBox="120 0 270 270" style="enable-background:new 0 0 515 515;" xml:space="preserve">
	<circle xmlns="http://www.w3.org/2000/svg" style="fill:#f78f1d;" cx="255" cy="280" r="215"/>
	<g>
	<path style="fill:#3B484A;" d="M168.539,213.84c-4.204,0-7.611-3.408-7.611-7.611V190.4c0-4.204,3.408-7.611,7.611-7.611
	s7.611,3.408,7.611,7.611v15.828C176.15,210.432,172.742,213.84,168.539,213.84z"/>
	<path style="fill:#3B484A;" d="M343.452,213.84c-4.204,0-7.611-3.408-7.611-7.611V190.4c0-4.204,3.408-7.611,7.611-7.611
	c4.204,0,7.611,3.408,7.611,7.611v15.828C351.063,210.432,347.655,213.84,343.452,213.84z"/>
	<path style="fill:#3B484A;" d="M255.996,222.288c-10.609,0-20.566-4.43-27.317-12.152c-2.767-3.165-2.444-7.974,0.722-10.74
	c3.165-2.766,7.974-2.444,10.74,0.722c3.86,4.416,9.638,6.948,15.855,6.948c6.216,0,11.995-2.532,15.854-6.948
	c2.768-3.165,7.576-3.488,10.74-0.722c3.165,2.767,3.488,7.575,0.722,10.74C276.561,217.859,266.604,222.288,255.996,222.288z"/>
	</g>
	<ellipse style="fill:#FEC300;" cx="180" cy="260" rx="40" ry="25"/>
	<ellipse style="fill:#FEC300;" cx="330" cy="260" rx="40" ry="25"/>
	<path style="fill:#C00606;" d="M255.993,89.404c-3.249,0-6.257-2.096-7.268-5.361c-0.183-0.589-4.468-14.615-4.514-31.5
	c-0.063-23.592,8.192-41.348,23.872-51.348c3.545-2.261,8.249-1.219,10.51,2.325c2.26,3.544,1.22,8.25-2.325,10.51
	c-11.219,7.155-16.883,20.099-16.835,38.472c0.04,14.626,3.794,26.914,3.832,27.036c1.244,4.016-1.003,8.279-5.017,9.523
	C257.498,89.293,256.74,89.404,255.993,89.404z"/>
	<circle style="fill:#FF0000;" cx="250" cy="78" r="33"/>
</svg>